# xmcd
#
# Track frame offsets:
#  150
#  16963
#  38962
#  62858
#  80470
#  96346
#  114094
#  136532
#  172171
#  191194
#  220530
#  240870
#  261731
#
# Disc length: 3863 seconds
#
# Revision: 0
# Processed by: cddbd v1.5.1PL0 Copyright (c) Steve Scherf et al.
# Submitted via: AltoMP3_Maker 3.0
#
DISCID=af0f150d
DTITLE=張學友 - 活出生命live演唱會
DYEAR=1900
DGENRE=
TTITLE0=星晴
TTITLE1=愛很簡單
TTITLE2=愛我別走
TTITLE3=愛如潮水
TTITLE4=味道
TTITLE5=等
TTITLE6=追
TTITLE7=情人
TTITLE8=不老的傳說
TTITLE9=講你知
TTITLE10=我真的受傷了
TTITLE11=她來我的演唱會
TTITLE12=愛是永
EXTD=
EXTT0=
EXTT1=
EXTT2=
EXTT3=
EXTT4=
EXTT5=
EXTT6=
EXTT7=
EXTT8=
EXTT9=
EXTT10=
EXTT11=
EXTT12=
PLAYORDER=
